HIERARCHY
ROOT hip
{
	OFFSET 0.000000 0.000000 0.000000
	CHANNELS 6 Xposition Yposition Zposition Zrotation Yrotation Xrotation 
	JOINT lhipjoint
	{
		OFFSET 0.000000 0.000000 0.000000
		CHANNELS 3 Zrotation Yrotation Xrotation
		JOINT lfemur
		{
			OFFSET 1.363060 -1.794630 0.839290
			CHANNELS 3 Zrotation Yrotation Xrotation
			JOINT ltibia
			{
				OFFSET 2.448110 -6.726130 0.000000
				CHANNELS 3 Zrotation Yrotation Xrotation
				JOINT lfoot
				{
					OFFSET 2.562200 -7.039590 0.000000
					CHANNELS 3 Zrotation Yrotation Xrotation
					JOINT ltoes
					{
						OFFSET 0.157640 -0.433110 2.322550
						CHANNELS 3 Zrotation Yrotation Xrotation
						End Site
						{
							OFFSET 0.000000 0.000000 0.000000
						}
					}
				}
			}
		}
	}
	JOINT rhipjoint
	{
		OFFSET 0.000000 0.000000 0.000000
		CHANNELS 3 Zrotation Yrotation Xrotation
		JOINT rfemur
		{
			OFFSET -1.305520 -1.794630 0.839290
			CHANNELS 3 Zrotation Yrotation Xrotation
			JOINT rtibia
			{
				OFFSET -2.542530 -6.985550 0.000000
				CHANNELS 3 Zrotation Yrotation Xrotation
				JOINT rfoot
				{
					OFFSET -2.568260 -7.056230 0.000000
					CHANNELS 3 Zrotation Yrotation Xrotation
					JOINT rtoes
					{
						OFFSET -0.164730 -0.452590 2.363150
						CHANNELS 3 Zrotation Yrotation Xrotation
						End Site
						{
							OFFSET 0.000000 0.000000 0.000000
						}
					}
				}
			}
		}
	}
	JOINT lowerback
	{
		OFFSET 0.000000 0.000000 0.000000
		CHANNELS 3 Zrotation Yrotation Xrotation
		JOINT upperback
		{
			OFFSET 0.028270 2.035590 -0.193380
			CHANNELS 3 Zrotation Yrotation Xrotation
			JOINT thorax
			{
				OFFSET 0.056720 2.048850 -0.042750
				CHANNELS 3 Zrotation Yrotation Xrotation
				JOINT lowerneck
				{
					OFFSET 0.000000 0.000000 0.000000
					CHANNELS 3 Zrotation Yrotation Xrotation
					JOINT upperneck
					{
						OFFSET -0.054170 1.746240 0.172020
						CHANNELS 3 Zrotation Yrotation Xrotation
						JOINT head
						{
							OFFSET 0.104070 1.761360 -0.123970
							CHANNELS 3 Zrotation Yrotation Xrotation
							End Site
							{
								OFFSET 0.000000 0.000000 0.000000
							}
						}
					}
				}
				JOINT lclavicle
				{
					OFFSET 0.000000 0.000000 0.000000
					CHANNELS 3 Zrotation Yrotation Xrotation
					JOINT lhumerus
					{
						OFFSET 3.362410 1.200890 -0.311210
						CHANNELS 3 Zrotation Yrotation Xrotation
						JOINT lradius
						{
							OFFSET 4.983000 -0.000000 -0.000000
							CHANNELS 3 Zrotation Yrotation Xrotation
							JOINT lwrist
							{
								OFFSET 3.483560 -0.000000 -0.000000
								CHANNELS 3 Zrotation Yrotation Xrotation
								JOINT lhand
								{
									OFFSET 0.000000 0.000000 0.000000
									CHANNELS 3 Zrotation Yrotation Xrotation
									JOINT lfingers
									{
										OFFSET 0.715260 -0.000000 -0.000000
										CHANNELS 3 Zrotation Yrotation Xrotation
										End Site
										{
											OFFSET 0.000000 0.000000 0.000000
										}
									}
								}
								JOINT lthumb
								{
									OFFSET 0.000000 0.000000 0.000000
									CHANNELS 3 Zrotation Yrotation Xrotation
									End Site
									{
										OFFSET 0.000000 0.000000 0.000000
									}
								}
							}
						}
					}
				}
				JOINT rclavicle
				{
					OFFSET 0.000000 0.000000 0.000000
					CHANNELS 3 Zrotation Yrotation Xrotation
					JOINT rhumerus
					{
						OFFSET -3.136600 1.374050 -0.404650
						CHANNELS 3 Zrotation Yrotation Xrotation
						JOINT rradius
						{
							OFFSET -5.241900 -0.000000 -0.000000
							CHANNELS 3 Zrotation Yrotation Xrotation
							JOINT rwrist
							{
								OFFSET -3.444170 -0.000000 -0.000000
								CHANNELS 3 Zrotation Yrotation Xrotation
								JOINT rhand
								{
									OFFSET 0.000000 0.000000 0.000000
									CHANNELS 3 Zrotation Yrotation Xrotation
									JOINT rfingers
									{
										OFFSET -0.622530 -0.000000 -0.000000
										CHANNELS 3 Zrotation Yrotation Xrotation
										End Site
										{
											OFFSET 0.000000 0.000000 0.000000
										}
									}
								}
								JOINT rthumb
								{
									OFFSET 0.000000 0.000000 0.000000
									CHANNELS 3 Zrotation Yrotation Xrotation
									End Site
									{
										OFFSET 0.000000 0.000000 0.000000
									}
								}
							}
						}
					}
				}
			}
		}
	}
}
MOTION
Frames: 8
Frame Time: 0.008333
1.919530 17.348117 -26.907558 -6.401447 -1.273300 -12.722869 8.702668 1.554228 -0.088852 -18.818225 -11.239398 -16.232958 6.803253 15.521245 48.912434 2.152682 -1.129839 11.666406 0.109200 -2.130500 -5.866400 -13.172077 -2.794097 -6.176733 43.744600 -3.145299 18.615396 -1.859547 -6.996556 23.011100 -0.865255 0.046134 -3.139091 -0.122000 2.251500 -6.201300 11.277211 -1.135139 21.431753 0.499621 0.334713 -1.763790 -5.181620 1.116254 -0.715973 -1.718792 1.100503 -0.772411 2.947221 2.350814 21.120935 0.891200 1.123300 6.422400 0.330775 -3.505055 3.033697 -81.377873 2.997950 9.749051 6.710123 -32.915198 -3.363595 0.146334 1.847904 21.782340 9.288184 -6.267558 -1.391100 -7.125000 0.000000 0.000000 -12.291700 21.882200 6.983500 -2.342230 5.742437 5.031313 74.500528 1.236890 13.105623 -5.862746 27.669081 -3.007218 -1.874193 -2.262021 23.095501 -21.987949 14.075738 -6.546600 7.125000 0.000000 0.000000 4.425400 -11.647200 3.451500 
1.926496 17.361949 -26.777897 -6.509936 -1.246456 -12.737835 8.662123 1.512486 -0.034775 -18.672424 -11.861667 -16.066443 6.215428 14.989481 46.659002 2.020347 -0.702134 11.435172 0.157800 -2.559600 -7.055000 -13.121843 -2.710820 -6.346100 43.603623 -3.815407 19.943709 -1.604354 -6.456105 21.431357 -0.766643 -0.229806 -2.886551 -0.128000 2.306300 -6.353000 11.335439 -1.101027 21.275141 0.500429 0.373739 -1.766392 -5.196070 1.118797 -0.676078 -1.684642 1.058026 -0.705859 2.897966 2.305209 21.154565 0.854400 1.107300 6.407300 0.337770 -3.445908 3.043499 -81.318528 2.964942 9.632332 6.669326 -32.861566 -3.368870 0.159454 1.847872 21.700789 9.545371 -6.293514 -1.431800 -7.125000 0.000000 0.000000 -12.115600 21.842400 6.890100 -2.328615 5.659843 5.027411 74.295323 1.851485 12.848673 -5.656489 27.426823 -2.966112 -1.886481 -2.200779 23.549054 -21.923534 14.238907 -6.562100 7.125000 0.000000 0.000000 4.485400 -11.535200 3.508900 
1.932666 17.378965 -26.648237 -6.602483 -1.188505 -12.748822 8.627209 1.461892 0.023229 -18.535312 -12.600937 -15.888648 5.657510 14.441498 44.426381 1.871975 -0.249972 11.047739 0.210700 -2.955100 -8.153700 -13.066327 -2.612417 -6.528124 43.420665 -4.515776 21.411940 -1.322133 -5.821779 19.591983 -0.643026 -0.579654 -2.569586 -0.131700 2.339000 -6.443600 11.377736 -1.069904 21.107859 0.499016 0.398617 -1.766499 -5.249440 1.117424 -0.617564 -1.618152 1.022537 -0.646542 2.868170 2.264071 21.185002 0.822600 1.096900 6.385500 0.329271 -3.380784 3.056579 -81.191136 2.951062 9.577295 6.653985 -32.820039 -3.377235 0.167665 1.845779 21.601555 9.767401 -6.280664 -1.460600 -7.125000 0.000000 0.000000 -11.965100 21.845600 6.799800 -2.314601 5.573645 5.024021 74.132048 2.451688 12.594050 -5.470577 27.220084 -2.930604 -1.895879 -2.148315 24.015867 -21.871447 14.348399 -6.566700 7.125000 0.000000 0.000000 4.530100 -11.469800 3.550200 
1.939930 17.397076 -26.518378 -6.723078 -1.158112 -12.769663 8.586444 1.404364 0.084310 -18.343974 -13.385313 -15.675901 5.136287 13.875882 42.221517 1.676447 0.346414 10.680942 0.258800 -3.273000 -9.039800 -13.002558 -2.496507 -6.719346 43.192001 -5.296243 23.032101 -1.011037 -5.079971 17.456982 -0.500189 -0.979468 -2.094043 -0.136300 2.379900 -6.556700 11.452774 -1.040508 20.968469 0.499573 0.435384 -1.768664 -5.290657 1.117163 -0.584496 -1.562438 0.983684 -0.566323 2.827077 2.222045 21.218661 0.787000 1.084700 6.364100 0.327810 -3.329706 3.068231 -81.115694 3.008082 9.526550 6.660439 -32.811701 -3.391569 0.177441 1.847103 21.517133 10.010917 -6.286911 -1.496700 -7.125000 0.000000 0.000000 -11.797500 21.825500 6.705900 -2.298975 5.496912 5.021581 73.943679 3.042699 12.376138 -5.258962 26.986531 -2.895189 -1.907826 -2.095847 24.465599 -21.890728 14.439759 -6.589000 7.125000 0.000000 0.000000 4.529000 -11.411200 3.554800 
1.948189 17.414291 -26.388916 -6.807376 -1.117343 -12.770791 8.544494 1.334807 0.152324 -18.149906 -14.286336 -15.471984 4.649087 13.303938 40.052900 1.435574 1.093199 10.428309 0.289800 -3.462000 -9.567900 -12.925140 -2.359743 -6.918130 42.861255 -6.117960 24.784800 -0.684976 -4.223499 15.019231 -0.325763 -1.474715 -1.489107 -0.140100 2.412000 -6.645600 11.494923 -1.004012 20.813376 0.497087 0.470544 -1.771752 -5.351321 1.116995 -0.545109 -1.494935 0.944417 -0.509945 2.790128 2.177918 21.253877 0.752900 1.071600 6.353400 0.316230 -3.283330 3.077573 -81.014521 3.112480 9.510774 6.705146 -32.833267 -3.413825 0.185147 1.848666 21.332004 10.239686 -6.303307 -1.532600 -7.125000 0.000000 0.000000 -11.640600 21.795000 6.621200 -2.281222 5.423396 5.017653 73.753067 3.603883 12.243275 -5.063781 26.781395 -2.866220 -1.919300 -2.052514 24.842966 -21.957046 14.497753 -6.618500 7.125000 0.000000 0.000000 4.495000 -11.372100 3.531600 
1.957443 17.427028 -26.259057 -6.920267 -1.076114 -12.797644 8.495345 1.254342 0.218098 -17.897538 -15.263174 -15.193085 4.202418 12.724338 37.936471 1.162485 1.914587 10.125010 0.306400 -3.558500 -9.837800 -12.833723 -2.199275 -7.126041 42.442825 -7.066621 26.718960 -0.343925 -3.240803 12.247334 -0.145041 -1.988977 -0.730415 -0.151200 2.505700 -6.905400 11.554871 -0.982955 20.671074 0.499211 0.492259 -1.771287 -5.384579 1.108125 -0.481333 -1.448102 0.913095 -0.470984 2.750061 2.145328 21.291546 0.720300 1.062600 6.344700 0.315461 -3.227446 3.088914 -80.940334 3.171611 9.437179 6.691683 -32.809421 -3.422092 0.189667 1.849526 21.214625 10.414032 -6.270909 -1.551700 -7.125000 0.000000 0.000000 -11.522500 21.817400 6.545200 -2.266700 5.332435 5.010902 73.565590 4.238047 11.976519 -4.797336 26.493446 -2.824736 -1.931417 -1.996354 25.336824 -22.022022 14.544935 -6.639700 7.125000 0.000000 0.000000 4.461400 -11.355300 3.506600 
1.967295 17.434192 -26.131188 -7.011938 -1.027522 -12.800298 8.440972 1.161385 0.293336 -17.625536 -16.368594 -14.923451 3.796996 12.148283 35.875129 0.827279 2.903785 9.790710 0.285300 -3.435400 -9.493300 -12.718170 -2.014228 -7.337642 41.777018 -8.280208 28.783083 0.005449 -2.095913 9.039592 -0.006194 -2.375713 0.362800 -0.159300 2.571900 -7.089100 11.594970 -0.959531 20.538580 0.500114 0.517032 -1.776425 -5.414615 1.096942 -0.455321 -1.416226 0.886657 -0.424687 2.721486 2.116834 21.316854 0.701000 1.052200 6.336100 0.308299 -3.195349 3.095127 -80.871343 3.294274 9.400563 6.695386 -32.801556 -3.430082 0.195133 1.845878 21.059233 10.547350 -6.325377 -1.580100 -7.125000 0.000000 0.000000 -11.431400 21.758500 6.507100 -2.249527 5.258562 5.003966 73.333866 4.808959 11.962297 -4.575448 26.253985 -2.790229 -1.939178 -1.964905 25.620015 -22.132387 14.461516 -6.637000 7.125000 0.000000 0.000000 4.387400 -11.450000 3.439500 
1.978340 17.435088 -26.002622 -7.124097 -0.968981 -12.824937 8.366608 1.041236 0.364937 -17.290882 -17.536117 -14.600989 3.440718 11.576884 33.902337 0.445759 3.983218 9.327461 0.260000 -3.280500 -9.060600 -12.555162 -1.759467 -7.565789 40.864986 -9.697425 31.461385 0.386654 -0.524463 4.692376 0.221274 -3.075061 1.988106 -0.166000 2.625100 -7.236600 11.658501 -0.944704 20.413748 0.503277 0.535574 -1.778352 -5.456406 1.080752 -0.397098 -1.379401 0.866331 -0.419005 2.709980 2.093295 21.356620 0.693000 1.042900 6.346600 0.298121 -3.159387 3.102009 -80.790534 3.388153 9.374441 6.691725 -32.784228 -3.434782 0.195055 1.844635 20.875795 10.634264 -6.296266 -1.586500 -7.125000 0.000000 0.000000 -11.375100 21.784000 6.467000 -2.231753 5.167688 4.992736 73.115489 5.403449 11.984566 -4.347978 26.021586 -2.755936 -1.946173 -1.937574 25.874489 -22.252465 14.347317 -6.627400 7.125000 0.000000 0.000000 4.304400 -11.572600 3.363100 
